<svg width="177" height="37" viewBox="0 0 177 37" fill="none" xmlns="http://www.w3.org/2000/svg">
<path d="M159.142 18.0092V1.24299C159.142 1.0755 159.073 0.915392 158.951 0.797775C158.83 0.681391 158.664 0.613654 158.499 0.627817C158.204 0.640748 151.283 1.11922 151.283 14.6359C151.283 14.977 151.559 15.2516 151.898 15.2516H154.07V18.0092C153.32 18.2031 152.764 18.8799 152.764 19.6921V33.8282C152.764 34.7913 153.544 35.5734 154.506 35.5734H158.705C159.667 35.5734 160.447 34.7913 160.447 33.8282V19.6921C160.449 18.8799 159.892 18.2031 159.142 18.0092ZM152.518 14.0207C152.673 4.57566 156.382 2.46165 157.913 1.9918V17.9464H155.3V14.6365C155.3 14.2959 155.025 14.0207 154.685 14.0207H152.518Z" fill="#0015D3"/>
<path d="M147.543 0.627251H147.186C146.493 0.627251 145.875 0.933916 145.444 1.41239C145.012 0.933916 144.394 0.627251 143.702 0.627251H143.344C142.629 0.627251 141.996 0.954237 141.563 1.46042C141.13 0.955468 140.497 0.627251 139.782 0.627251H139.425C138.125 0.627251 137.068 1.68703 137.068 2.98881V9.42692C137.068 9.54084 137.107 9.6406 137.159 9.72989C137.272 12.3347 138.814 14.5552 140.987 15.5448V18.008C140.237 18.202 139.68 18.8787 139.68 19.6909V33.8264C139.68 34.7895 140.461 35.5716 141.423 35.5716H145.622C146.584 35.5716 147.364 34.7895 147.364 33.8264V19.6922C147.364 18.8799 146.808 18.2032 146.058 18.0092V15.546C148.316 14.5177 149.9 12.1641 149.9 9.42692V2.98881C149.901 1.68703 148.843 0.627251 147.543 0.627251ZM144.829 16.099V17.9464H142.216V16.099H144.829ZM143.523 14.8674C140.684 14.8674 138.374 12.4271 138.374 9.42753C138.374 9.32408 138.342 9.2311 138.297 9.14489V2.98881C138.297 2.36563 138.803 1.85822 139.425 1.85822H139.782C140.404 1.85822 140.909 2.36563 140.909 2.98881V9.42692C140.909 9.76807 141.185 10.0427 141.524 10.0427C141.538 10.0427 141.549 10.0353 141.563 10.0341C141.576 10.0353 141.588 10.0427 141.602 10.0427C141.941 10.0427 142.216 9.76807 142.216 9.42692V2.98881C142.216 2.36563 142.722 1.85822 143.344 1.85822H143.701C144.323 1.85822 144.828 2.36563 144.828 2.98881V9.42692C144.828 9.76807 145.104 10.0427 145.443 10.0427C145.782 10.0427 146.058 9.76807 146.058 9.42692V2.98881C146.058 2.36563 146.564 1.85822 147.185 1.85822H147.542C148.165 1.85822 148.67 2.36563 148.67 2.98881V9.42692C148.671 12.4271 146.362 14.8674 143.523 14.8674Z" fill="#0015D3"/>
<path d="M170.623 0.6272C167.105 0.6272 164.245 3.62056 164.245 7.29992V9.7243C164.245 12.4603 165.829 14.8144 168.087 15.8428V18.011C167.337 18.205 166.78 18.8817 166.78 19.6946V33.8295C166.78 34.7926 167.561 35.5746 168.523 35.5746H172.722C173.683 35.5746 174.464 34.7926 174.464 33.8295V19.6921C174.464 18.8799 173.908 18.2031 173.158 18.0092V15.841C175.416 14.8126 177 12.4596 177 9.72245V7.29807C177.001 3.62118 174.14 0.6272 170.623 0.6272ZM171.929 16.3952V17.947H169.316V16.3952H171.929ZM175.771 9.72368C175.771 12.7232 173.461 15.1636 170.623 15.1636C167.784 15.1636 165.474 12.7232 165.474 9.72368V7.29931C165.474 4.29917 167.784 1.85817 170.623 1.85817C173.461 1.85817 175.771 4.29917 175.771 7.29931V9.72368Z" fill="#0015D3"/>
<path d="M6.55107 36.5C4.43457 36.5 2.8052 35.9696 1.66296 34.9088C0.554321 33.8149 0 32.2403 0 30.1851C0 29.5552 0.0839881 28.7431 0.251964 27.7486L3.67868 8.55525C4.11542 5.93646 5.00569 3.94751 6.3495 2.5884C7.69331 1.19613 9.38987 0.5 11.4392 0.5C13.5557 0.5 15.185 1.04696 16.3273 2.14088C17.4695 3.23481 18.0406 4.79282 18.0406 6.81492C18.0406 7.4779 17.9567 8.27348 17.7887 9.20166L17.1336 12.8315H11.5904L12.3966 8.50553C12.4974 7.90884 12.5478 7.4116 12.5478 7.01381C12.5478 6.48343 12.447 6.10221 12.2455 5.87016C12.0439 5.63812 11.7079 5.5221 11.2376 5.5221C10.7001 5.5221 10.2801 5.75414 9.97778 6.21823C9.67543 6.68232 9.42346 7.44475 9.22189 8.50553L5.644 28.4945C5.54321 29.0249 5.49282 29.5055 5.49282 29.9365C5.49282 30.4669 5.59361 30.8646 5.79518 31.1298C5.99675 31.3619 6.3327 31.4779 6.80303 31.4779C7.30696 31.4779 7.71011 31.2459 8.01246 30.7818C8.34842 30.3177 8.60038 29.5718 8.76836 28.5442L9.72582 23.3232H15.269L14.362 28.4448C13.9252 31.0304 13.0182 33.0193 11.6407 34.4116C10.2969 35.8039 8.60038 36.5 6.55107 36.5Z" fill="#0015D3"/>
<path d="M22.874 35.9033H17.3308L22.5717 6.3674H18.5402L19.4977 1.09668H33.0534L32.1463 6.3674H28.1149L22.874 35.9033Z" fill="#0015D3"/>
<path d="M35.3466 36.5C33.163 36.5 31.5 35.953 30.3578 34.8591C29.2155 33.7652 28.6444 32.1906 28.6444 30.1354C28.6444 29.3066 28.7116 28.511 28.846 27.7486L32.2727 8.65469C32.7094 6.03591 33.6165 4.03039 34.9939 2.63812C36.4049 1.21271 38.1518 0.5 40.2348 0.5C42.4184 0.5 44.0814 1.04696 45.2236 2.14088C46.3659 3.23481 46.937 4.80939 46.937 6.86464C46.937 7.69337 46.8698 8.48895 46.7354 9.25138L43.3087 28.3453C42.872 30.9641 41.9481 32.9862 40.5371 34.4116C39.1597 35.8039 37.4296 36.5 35.3466 36.5ZM35.5986 31.4779C36.1697 31.4779 36.6233 31.2459 36.9592 30.7818C37.2952 30.2845 37.5471 29.5055 37.7151 28.4448L41.293 8.65469C41.3938 8.09116 41.4442 7.64365 41.4442 7.31215C41.4442 6.68232 41.3266 6.2348 41.0914 5.96961C40.8563 5.67127 40.4867 5.5221 39.9828 5.5221C39.4117 5.5221 38.9581 5.77072 38.6222 6.26796C38.2862 6.73204 38.0343 7.49448 37.8663 8.55525L34.2884 28.3453C34.1876 28.8757 34.1372 29.3232 34.1372 29.6878C34.1372 30.3177 34.2548 30.7818 34.49 31.0801C34.7251 31.3453 35.0947 31.4779 35.5986 31.4779Z" fill="#0015D3"/>
<path d="M42.2308 36.3011L43.1882 30.7818H43.7426C44.5153 30.7818 45.204 30.2182 45.8087 29.0912C46.447 27.9641 47.0181 25.9254 47.522 22.9751L51.4527 1.09668H65.5123L59.314 35.9033H53.7707L59.0116 6.3674H56.0384L52.9141 23.8204C52.3429 27.0028 51.6542 29.5055 50.848 31.3287C50.0753 33.1188 49.1178 34.395 47.9756 35.1575C46.8333 35.9199 45.4055 36.3011 43.6922 36.3011H42.2308Z" fill="#0015D3"/>
<path d="M70.0429 36.5C67.8592 36.5 66.1963 35.953 65.054 34.8591C63.9118 33.7652 63.3407 32.1906 63.3407 30.1354C63.3407 29.3066 63.4078 28.511 63.5422 27.7486L66.9689 8.65469C67.4057 6.03591 68.3127 4.03039 69.6902 2.63812C71.1012 1.21271 72.8481 0.5 74.931 0.5C77.1147 0.5 78.7777 1.04696 79.9199 2.14088C81.0621 3.23481 81.6333 4.80939 81.6333 6.86464C81.6333 7.69337 81.5661 8.48895 81.4317 9.25138L78.005 28.3453C77.5682 30.9641 76.6444 32.9862 75.2334 34.4116C73.856 35.8039 72.1258 36.5 70.0429 36.5ZM70.2949 31.4779C70.866 31.4779 71.3195 31.2459 71.6555 30.7818C71.9914 30.2845 72.2434 29.5055 72.4114 28.4448L75.9893 8.65469C76.09 8.09116 76.1404 7.64365 76.1404 7.31215C76.1404 6.68232 76.0229 6.2348 75.7877 5.96961C75.5525 5.67127 75.183 5.5221 74.6791 5.5221C74.1079 5.5221 73.6544 5.77072 73.3184 6.26796C72.9825 6.73204 72.7305 7.49448 72.5625 8.55525L68.9847 28.3453C68.8839 28.8757 68.8335 29.3232 68.8335 29.6878C68.8335 30.3177 68.9511 30.7818 69.1862 31.0801C69.4214 31.3453 69.7909 31.4779 70.2949 31.4779Z" fill="#0015D3"/>
<path d="M79.4853 35.9033L85.6836 1.09668H91.6299C93.9144 1.09668 95.6446 1.64364 96.8204 2.73757C98.0298 3.83149 98.6345 5.42265 98.6345 7.51105C98.6345 8.17403 98.5506 9.00276 98.3826 9.99724L97.9794 11.9365C97.7107 13.4945 97.2235 14.837 96.5181 15.9641C95.8461 17.058 95.0399 17.8536 94.0992 18.3508C94.7375 18.8481 95.2246 19.5276 95.5606 20.3895C95.8965 21.2182 96.0645 22.1464 96.0645 23.174C96.0645 23.7376 96.0141 24.3011 95.9133 24.8646L95.5102 27.1519C95.0063 30.1685 94.0488 32.3895 92.6378 33.8149C91.2268 35.2072 89.2783 35.9033 86.7922 35.9033H79.4853ZM89.6142 15.7652C90.3533 15.7652 90.9244 15.5166 91.3276 15.0193C91.7643 14.4889 92.1003 13.6271 92.3354 12.4337L92.8898 9.5C92.9905 9.00276 93.0409 8.55525 93.0409 8.15746C93.0409 6.69889 92.4194 5.96961 91.1764 5.96961H90.3701L88.6064 15.7652H89.6142ZM87.0442 31.0304C87.8505 31.0304 88.4552 30.7818 88.8583 30.2845C89.2951 29.7541 89.631 28.8757 89.8662 27.6492L90.4205 24.4669C90.5213 23.9696 90.5717 23.5055 90.5717 23.0746C90.5717 21.7155 90.0006 21.0359 88.8583 21.0359H87.6489L85.8348 31.0304H87.0442Z" fill="#0015D3"/>
<path d="M101.737 35.9033H96.1936L102.392 1.09668H107.935L105.164 16.4613H106.02L112.622 1.09668H118.518L110.808 18.5L112.471 35.9033H106.675L105.365 20.2901H104.508L101.737 35.9033Z" fill="#0015D3"/>
<path d="M117.081 35.9033H111.387L122.322 1.09668H129.78L127.815 35.9033H122.473L123.027 28.9917H118.996L117.081 35.9033ZM120.357 23.721H123.481L124.489 12.7818L125.144 6.81492H124.993L123.38 12.7818L120.357 23.721Z" fill="#0015D3"/>
</svg>
