<svg width="24" height="24" viewBox="0 0 24 24" fill="none" xmlns="http://www.w3.org/2000/svg">
<path d="M6.62029 6.70368H19.9889C20.6558 6.704 21.2711 7.0629 21.5996 7.64328C21.9281 8.22367 21.9191 8.93588 21.5762 9.50783L19.4598 14.005C19.1254 14.5628 18.5229 14.9042 17.8726 14.9044L7.54619 15.9626C6.52347 15.9626 5.6944 15.1335 5.6944 14.1108L6.62029 6.70368ZM6.62029 6.70368L5.73534 3.15608C5.71168 3.0638 5.62824 2.99945 5.53296 3H2M7.54484 20.1291C7.54337 20.8944 6.92211 21.5137 6.15688 21.5127C5.39164 21.5117 4.77195 20.8909 4.77244 20.1257C4.77293 19.3603 5.3934 18.7403 6.15864 18.7403C6.52663 18.7407 6.87941 18.8872 7.13938 19.1477C7.39934 19.4081 7.54518 19.7611 7.54484 20.1291ZM14.9375 20.1291C14.936 20.8944 14.3147 21.5137 13.5495 21.5127C12.7842 21.5117 12.1645 20.8909 12.1651 20.1257C12.1656 19.3603 12.7861 18.7403 13.5513 18.7403C13.9192 18.7407 14.272 18.8872 14.5321 19.1477C14.792 19.4081 14.9379 19.7611 14.9375 20.1291Z" stroke="#0015D3" stroke-width="1.72854" stroke-linecap="round" stroke-linejoin="round"/>
</svg>
