<svg width="136" height="135" viewBox="0 0 136 135" fill="none" xmlns="http://www.w3.org/2000/svg">
<path fill-rule="evenodd" clip-rule="evenodd" d="M68.5 122.188C38.2969 122.188 13.8125 97.6953 13.8125 67.5C13.8125 37.3047 38.2969 12.8125 68.5 12.8125C98.7031 12.8125 123.188 37.3047 123.188 67.5C123.188 97.6953 98.7031 122.188 68.5 122.188ZM68.5 5C33.9805 5 6 32.9687 6 67.5C6 102.031 33.9805 130 68.5 130C103.02 130 131 102.031 131 67.5C131 32.9687 103.02 5 68.5 5ZM90.832 45.1564C89.2929 43.6329 86.8047 43.6329 85.2656 45.1564L68.4766 61.953L51.9297 45.3905C50.4023 43.8671 47.9258 43.8671 46.4062 45.3905C44.8789 46.9139 44.8789 49.4141 46.4062 50.9375L62.9532 67.4609L46.2892 84.1407C44.754 85.6641 44.754 88.1638 46.2892 89.7263C47.8282 91.2498 50.3203 91.2498 51.8593 89.7263L68.5234 73.047L85.0703 89.6095C86.5977 91.1329 89.0742 91.1329 90.5976 89.6095C92.1249 88.0861 92.1249 85.5859 90.5976 84.0625L74.0468 67.5391L90.832 50.742C92.3671 49.1795 92.3671 46.7189 90.832 45.1564Z" fill="#FF3737"/>
</svg>
