<svg width="24" height="24" viewBox="0 0 24 24" fill="none" xmlns="http://www.w3.org/2000/svg">
<path d="M15.9762 7.56025C15.9762 9.0543 15.5012 10.5376 14.754 11.6276C13.9981 12.7304 13.0632 13.3049 12.1682 13.3049C11.2732 13.3049 10.3383 12.7304 9.5824 11.6276C8.83524 10.5376 8.36019 9.0543 8.36019 7.56025C8.36019 4.60206 10.1724 2.9078 12.1682 2.9078C14.164 2.9078 15.9762 4.60206 15.9762 7.56025Z" stroke="#0015D3" stroke-width="1.81559"/>
<path d="M5 21.0637C5.5397 19.6789 7.74621 16.9143 12.2624 16.8937M12.2624 16.8937C12.2793 16.8936 12.2962 16.8936 12.3132 16.8936M12.2624 16.8937C16.7785 16.9143 18.985 19.6789 19.5247 21.0637M12.2624 16.8937C12.2455 16.8936 12.2285 16.8936 12.2116 16.8936" stroke="#0015D3" stroke-width="1.81559" stroke-linejoin="round"/>
</svg>
