<svg width="91" height="91" viewBox="0 0 91 91" fill="none" xmlns="http://www.w3.org/2000/svg">
<rect x="4" y="3" width="84" height="84" rx="24" fill="#0015D3"/>
<g clip-path="url(#clip0_75_346)">
<path d="M48.661 44.8855V23.7601C48.661 23.5491 48.5741 23.3474 48.4197 23.1992C48.2669 23.0525 48.0574 22.9672 47.8487 22.985C47.477 23.0013 38.7419 23.6042 38.7419 40.6351C38.7419 41.065 39.0895 41.411 39.5178 41.411H42.2591V44.8855C41.3125 45.1299 40.6103 45.9826 40.6103 47.006V64.8175C40.6103 66.031 41.5949 67.0164 42.8092 67.0164H48.1094C49.3229 67.0164 50.3083 66.031 50.3083 64.8175V47.006C50.3098 45.9826 49.6068 45.1299 48.661 44.8855ZM40.3007 39.86C40.4955 27.9593 45.1772 25.2956 47.1092 24.7036V44.8064H43.8117V40.6359C43.8117 40.2068 43.4641 39.86 43.0358 39.86H40.3007Z" fill="#E5E7F7"/>
<path d="M34.0214 22.9843H33.5706C32.6961 22.9843 31.9163 23.3707 31.3717 23.9735C30.827 23.3707 30.0472 22.9843 29.1728 22.9843H28.7212C27.8188 22.9843 27.0196 23.3963 26.4734 24.034C25.9272 23.3978 25.128 22.9843 24.2256 22.9843H23.7748C22.1346 22.9843 20.8 24.3196 20.8 25.9598V34.0718C20.8 34.2154 20.8489 34.3411 20.9157 34.4536C21.0584 37.7356 23.0036 40.5335 25.7464 41.7804V44.884C24.7998 45.1284 24.0976 45.9811 24.0976 47.0045V64.8152C24.0976 66.0287 25.0822 67.0141 26.2965 67.0141H31.5967C32.8109 67.0141 33.7956 66.0287 33.7956 64.8152V47.006C33.7956 45.9826 33.0934 45.1299 32.1468 44.8855V41.7819C34.9967 40.4862 36.9961 37.5207 36.9961 34.0718V25.9598C36.9969 24.3196 35.6616 22.9843 34.0214 22.9843ZM30.5958 42.4787V44.8064H27.2982V42.4787H30.5958ZM28.947 40.9269C25.3639 40.9269 22.4488 37.852 22.4488 34.0726C22.4488 33.9423 22.4085 33.8251 22.3518 33.7165V25.9598C22.3518 25.1746 22.9904 24.5353 23.7748 24.5353H24.2256C25.0108 24.5353 25.6486 25.1746 25.6486 25.9598V34.0718C25.6486 34.5017 25.9962 34.8477 26.4245 34.8477C26.4416 34.8477 26.4563 34.8384 26.4734 34.8369C26.4905 34.8384 26.5052 34.8477 26.5223 34.8477C26.9506 34.8477 27.2982 34.5017 27.2982 34.0718V25.9598C27.2982 25.1746 27.9368 24.5353 28.7212 24.5353H29.172C29.9572 24.5353 30.595 25.1746 30.595 25.9598V34.0718C30.595 34.5017 30.9426 34.8477 31.3709 34.8477C31.7992 34.8477 32.1468 34.5017 32.1468 34.0718V25.9598C32.1468 25.1746 32.7853 24.5353 33.5698 24.5353H34.0206C34.8058 24.5353 35.4436 25.1746 35.4436 25.9598V34.0718C35.4451 37.852 32.5301 40.9269 28.947 40.9269Z" fill="#E5E7F7"/>
<path d="M63.1508 22.9844C58.7111 22.9844 55.1008 26.756 55.1008 31.392V34.4467C55.1008 37.894 57.1003 40.8603 59.9502 42.156V44.888C59.0036 45.1324 58.3014 45.9851 58.3014 47.0093V64.8192C58.3014 66.0327 59.286 67.0181 60.5003 67.0181H65.8005C67.014 67.0181 67.9994 66.0327 67.9994 64.8192V47.0062C67.9994 45.9828 67.2972 45.1301 66.3506 44.8856V42.1537C69.2004 40.858 71.1999 37.8933 71.1999 34.4444V31.3897C71.2007 26.7568 67.5905 22.9844 63.1508 22.9844ZM64.7996 42.852V44.8073H61.502V42.852H64.7996ZM69.6489 34.4459C69.6489 38.2253 66.7339 41.3002 63.1508 41.3002C59.5677 41.3002 56.6526 38.2253 56.6526 34.4459V31.3912C56.6526 27.6111 59.5677 24.5354 63.1508 24.5354C66.7339 24.5354 69.6489 27.6111 69.6489 31.3912V34.4459Z" fill="#E5E7F7"/>
</g>
<defs>
<clipPath id="clip0_75_346">
<rect width="50.4" height="50.4" fill="white" transform="translate(20.8 19.7999)"/>
</clipPath>
</defs>
</svg>
